<svg width="82" height="77" viewBox="0 0 82 77" fill="none" xmlns="http://www.w3.org/2000/svg">
<path d="M0.0493614 6.29736C-0.0730993 5.2505 0.0330311 4.29157 0.359593 3.40306C0.686155 2.51455 1.22499 1.77562 1.97608 1.18621C2.72717 0.596803 3.69053 0.227305 4.86615 0.0689558C6.04994 -0.0893932 7.07044 0.0249828 7.944 0.412058C8.80939 0.799133 9.50333 1.37973 10.0095 2.15388C10.5157 2.93683 10.8341 3.83414 10.9484 4.85461C11.03 5.56718 11.0137 6.23574 10.9075 6.86034C10.8014 7.48494 10.5973 8.048 10.3034 8.54943C10.0177 9.05087 9.63396 9.47309 9.16861 9.82498C8.70325 10.1769 8.15627 10.4232 7.51947 10.5816L7.16025 7.43218C7.38068 7.3706 7.58478 7.28262 7.75622 7.15066C7.92767 7.0275 8.07462 6.86913 8.18892 6.69319C8.30322 6.50845 8.38485 6.30615 8.42567 6.06863C8.47466 5.8311 8.47466 5.56718 8.44201 5.28567C8.38486 4.76663 8.21341 4.34437 7.944 4.01887C7.66642 3.69338 7.29904 3.46468 6.84185 3.33272C6.38466 3.20956 5.84583 3.18316 5.22537 3.26233C4.58041 3.3503 4.04975 3.51745 3.63338 3.76377C3.21701 4.0101 2.9231 4.32675 2.74349 4.71383C2.56389 5.1009 2.50674 5.54078 2.56389 6.05102C2.59655 6.34132 2.66186 6.58763 2.75983 6.80756C2.85779 7.02749 2.98025 7.20344 3.13537 7.36178C3.29049 7.51134 3.46193 7.62572 3.65787 7.71369C3.85381 7.79287 4.06607 7.83682 4.30283 7.84562L4.66205 10.995C4.20486 11.0214 3.73135 10.9422 3.23334 10.7751C2.73534 10.6079 2.26182 10.3264 1.82096 9.94815C1.37194 9.56987 0.988225 9.07725 0.677991 8.47904C0.359593 7.88083 0.15549 7.15946 0.057521 6.32373L0.0493614 6.29736Z" fill="white"/>
<path d="M2 16.0257L13.7153 16L15 19.9433L5.5733 27L4.50981 23.7239L8.21924 21.1407C9.02749 20.5848 9.86977 20.0288 10.7546 19.4813C11.6394 18.9339 12.5157 18.395 13.4005 17.8732L13.6132 18.5319C12.6008 18.6431 11.5798 18.7543 10.5504 18.8655C9.52094 18.9767 8.52552 19.0451 7.54712 19.0879L3.05497 19.259L2.0085 16.0257H2ZM4.86714 17.9161L7.01113 17.2061L8.91688 23.0653L6.77291 23.7753L4.86714 17.9161Z" fill="white"/>
<path d="M8 31.6176L17.1587 26L19.3702 30.3185C19.7468 31.0646 19.9632 31.7931 19.9952 32.5041C20.0273 33.2151 19.8991 33.8646 19.5946 34.4614C19.2901 35.0583 18.8093 35.5586 18.1683 35.9536C17.5112 36.3574 16.8782 36.5329 16.2612 36.489C15.6442 36.4451 15.0833 36.2082 14.5545 35.7781C14.0337 35.348 13.5769 34.7423 13.1843 33.9875L11.8622 31.3981L13.7933 30.2132L14.8349 32.2495C15.0032 32.5743 15.1795 32.8289 15.3718 33.0132C15.5641 33.1975 15.7724 33.3028 15.9888 33.3204C16.2131 33.3467 16.4535 33.2765 16.718 33.1185C16.9824 32.9605 17.1587 32.7674 17.2628 32.548C17.367 32.3285 17.3991 32.074 17.359 31.8019C17.3189 31.5298 17.2148 31.2226 17.0545 30.9066L16.5657 29.9498L9.40225 34.3386L8.01602 31.6176H8ZM10.7724 37.042L13.7212 32.0126L15.2035 34.9091L12.2869 40L10.7724 37.0332V37.042Z" fill="white"/>
<path d="M15.0087 43.9261L23.8151 37L29 43.1073L27.072 44.6195L23.8325 40.8098L22.3387 41.9794L25.3002 45.4717L23.4243 46.9505L20.4628 43.4582L18.8821 44.7031L22.0955 48.4878L20.1675 50L15 43.9177L15.0087 43.9261Z" fill="white"/>
<path d="M28.1276 57.7036C27.2566 57.0244 26.6549 56.2633 26.3137 55.4204C25.9725 54.5694 25.9096 53.6938 26.1251 52.7773C26.3407 51.869 26.8525 50.9852 27.6517 50.1259C28.4958 49.2258 29.4027 48.6203 30.3815 48.3011C31.3603 47.982 32.3391 47.9165 33.2999 48.1047C34.2697 48.2929 35.1498 48.6939 35.9579 49.324C36.4877 49.7332 36.9098 50.1832 37.242 50.6742C37.5653 51.1652 37.7898 51.6726 37.9065 52.1963C38.0233 52.72 38.0322 53.2355 37.9245 53.7429C37.8167 54.2502 37.6012 54.7249 37.269 55.1749L34.8175 53.2683C34.9073 53.1046 34.9702 52.9327 34.9881 52.7609C35.0061 52.5891 34.9881 52.4173 34.9432 52.2454C34.8893 52.0736 34.7995 51.9099 34.6828 51.7462C34.5571 51.5825 34.4044 51.427 34.2069 51.2798C33.8028 50.9688 33.3718 50.7888 32.9228 50.7397C32.4738 50.6906 32.0069 50.7806 31.5489 50.9934C31.0819 51.2143 30.633 51.558 30.1929 52.0244C29.744 52.4991 29.4387 52.9655 29.2591 53.4156C29.0884 53.8657 29.0525 54.2912 29.1693 54.6922C29.286 55.0931 29.5464 55.4532 29.9685 55.7805C30.3366 56.0669 30.6868 56.2551 31.0281 56.3451C31.3693 56.4351 31.6836 56.4433 31.9709 56.3533C32.2583 56.2715 32.5187 56.0997 32.7522 55.8623L33.1293 56.2306L31.0909 54.6431L32.5636 53.0637L36.5326 56.1405L35.482 57.2698C34.7816 58.0145 34.0183 58.5137 33.1832 58.7756C32.3481 59.0374 31.495 59.0701 30.624 58.8737C29.7529 58.6773 28.9358 58.2845 28.1546 57.679L28.1276 57.7036Z" fill="white"/>
<path d="M45 56.5835L39.433 66L37 64.4165L42.567 55L45 56.5835Z" fill="white"/>
<path d="M47.0089 70.3103L47.9511 58L51.2489 59.4036L50.7333 64.1149C50.6178 65.1341 50.4756 66.1622 50.3067 67.1992C50.1378 68.2363 49.9511 69.2733 49.7555 70.3282L49.1067 70.0511C49.7111 69.175 50.3244 68.3078 50.9289 67.4585C51.5333 66.6092 52.1555 65.7867 52.7955 64.9911L55.7467 61.3167L59 62.7024L50.9733 72L47 70.3103H47.0089Z" fill="white"/>
<path d="M60.0083 74.3854L62.3147 64L70 65.6227L69.4921 67.8946L64.6961 66.8804L64.3047 68.641L68.6928 69.5659L68.2015 71.7809L63.8135 70.856L63.3972 72.7221L68.1599 73.7282L67.652 76L60 74.3854H60.0083Z" fill="white"/>
<path d="M73.0082 76.6341L73.4352 66L78.0666 66.1789C78.8631 66.2114 79.5529 66.3821 80.1442 66.6911C80.7354 67 81.1788 67.439 81.4909 67.9919C81.8029 68.5447 81.9425 69.1951 81.9179 69.9512C81.885 70.7154 81.688 71.3496 81.3266 71.8618C80.9653 72.374 80.4726 72.748 79.8403 72.9919C79.2162 73.2358 78.4936 73.3414 77.6725 73.3089L74.9051 73.2032L74.9954 70.9594L77.1715 71.0488C77.5164 71.065 77.812 71.0325 78.0666 70.9512C78.313 70.8781 78.51 70.748 78.6414 70.5691C78.7728 70.3902 78.8549 70.1464 78.8631 69.8374C78.8714 69.5285 78.8221 69.2845 78.6989 69.0894C78.5757 68.8943 78.3951 68.748 78.1569 68.6504C77.9188 68.5528 77.6232 68.4959 77.2783 68.4797L76.2518 68.439L75.9152 76.7642L73 76.6504L73.0082 76.6341ZM78.8221 76.8699L76.3914 71.8862L79.4954 72.0081L82 77L78.8303 76.878L78.8221 76.8699Z" fill="white"/>
</svg>
