<svg width="40" height="87" viewBox="0 0 40 87" fill="none" xmlns="http://www.w3.org/2000/svg">
<path d="M1.14252 4.42823C1.34722 3.40575 1.76552 2.53182 2.37961 1.79773C2.99371 1.07238 3.7858 0.556778 4.75589 0.250908C5.72599 -0.054963 6.83848 -0.0811773 8.10227 0.172258C9.37496 0.425694 10.3984 0.88012 11.1727 1.52682C11.947 2.17352 12.4721 2.96003 12.7569 3.86891C13.0328 4.77778 13.0773 5.73035 12.8726 6.73535C12.7302 7.43449 12.4988 8.05499 12.1873 8.61429C11.8758 9.16486 11.4931 9.62803 11.0303 10.0038C10.5675 10.3796 10.0425 10.6505 9.45506 10.8166C8.85876 10.9913 8.20907 11.035 7.50597 10.9739L8.13787 7.88893C8.38707 7.90641 8.62736 7.88892 8.84096 7.82775C9.06346 7.76657 9.25926 7.67045 9.43726 7.53937C9.61526 7.40828 9.76655 7.23348 9.88225 7.03248C10.0069 6.82274 10.0959 6.57805 10.1493 6.29839C10.2561 5.79152 10.2116 5.33709 10.0336 4.93509C9.85555 4.53309 9.54406 4.19225 9.10796 3.92134C8.67186 3.65043 8.12007 3.4407 7.46147 3.30962C6.76728 3.16979 6.16208 3.1523 5.65479 3.23969C5.14749 3.33582 4.7381 3.5281 4.4355 3.83397C4.1329 4.13984 3.9282 4.5331 3.8214 5.03123C3.768 5.31088 3.7502 5.57305 3.7858 5.809C3.8214 6.04496 3.8837 6.26346 3.9994 6.45572C4.1062 6.64798 4.2486 6.81401 4.4266 6.96258C4.6046 7.10241 4.80929 7.21603 5.04959 7.30342L4.4177 10.3883C3.9371 10.2573 3.47431 10.03 3.01151 9.69794C2.54871 9.36585 2.14822 8.95511 1.81002 8.4395C1.46292 7.93263 1.23152 7.33837 1.08912 6.66545C0.955625 5.99254 0.973425 5.2497 1.13362 4.41948L1.14252 4.42823Z" fill="white"/>
<path d="M0.0333081 21.4722L5.06283 18.6098L5.02952 22.0556L0 25L0.0333081 21.4722ZM0.0915972 15.0091L11 15.1185L10.9584 20.2598C10.9584 21.144 10.8002 21.9188 10.4921 22.5843C10.1923 23.2498 9.75927 23.7602 9.20969 24.1249C8.65178 24.4895 7.98562 24.6718 7.21953 24.6627C6.43679 24.6627 5.77896 24.4622 5.24603 24.0702C4.7131 23.6873 4.3134 23.1495 4.04693 22.4658C3.78047 21.7821 3.64724 20.9799 3.65556 20.0775L3.68055 16.9964L5.9788 17.0237L5.95382 19.4394C5.95382 19.8222 5.99546 20.1504 6.07873 20.4239C6.162 20.6973 6.30356 20.907 6.48675 21.0529C6.67827 21.1987 6.92809 21.2716 7.23619 21.2808C7.54429 21.2808 7.80242 21.217 8.00227 21.0711C8.20212 20.9253 8.34368 20.7247 8.43528 20.4512C8.52687 20.1777 8.57684 19.8496 8.58516 19.4667V18.3273L0.0582891 18.2361L0.0832702 15L0.0915972 15.0091Z" fill="white"/>
<path d="M0 29.8985L11.5994 28L13 36.1452L10.4593 36.5565L9.5884 31.4733L7.63122 31.797L8.43025 36.4515L5.95235 36.8539L5.15332 32.1995L3.07044 32.5407L3.9413 37.5888L1.40055 38L0.00897789 29.8898L0 29.8985Z" fill="white"/>
<path d="M3 43.3191L14.6307 43L16 46.8374L6.81209 54L5.671 50.8175L9.28869 48.1893C10.0748 47.6183 10.8947 47.0557 11.7653 46.4931C12.6274 45.9306 13.4896 45.3847 14.3518 44.8557L14.58 45.4939C13.5741 45.6283 12.5683 45.7626 11.554 45.8969C10.5397 46.0313 9.54226 46.1237 8.57867 46.1825L4.12419 46.4595L3 43.3191ZM5.89077 45.1076L8.0039 44.3603L10.041 50.0618L7.92783 50.8092L5.89077 45.1076Z" fill="white"/>
<path d="M15.935 53.2147L18.0743 52L23 60.3006L20.8607 61.5153L19.1699 58.6641L11.5355 63L10 60.4103L17.6344 56.0744L15.9436 53.2232L15.935 53.2147Z" fill="white"/>
<path d="M19.4836 73.9393C18.7902 73.1347 18.3368 72.2585 18.1234 71.3019C17.91 70.3453 17.9722 69.3887 18.319 68.4232C18.6657 67.4576 19.3236 66.5546 20.2927 65.7053C21.2706 64.856 22.2664 64.3196 23.2621 64.114C24.2578 63.9083 25.218 63.9799 26.1248 64.3375C27.0317 64.6861 27.8318 65.2673 28.5164 66.0719C29.2098 66.8765 29.6632 67.7527 29.8766 68.7003C30.09 69.648 30.0278 70.6046 29.681 71.5791C29.3343 72.5446 28.6764 73.4565 27.6896 74.3148C26.7116 75.1641 25.7248 75.6916 24.7201 75.8883C23.7155 76.0939 22.7642 76.0135 21.8663 75.6648C20.9595 75.3161 20.1682 74.735 19.4747 73.9304L19.4836 73.9393ZM21.564 72.1244C21.9107 72.5267 22.293 72.7771 22.7109 72.8844C23.1287 72.9917 23.5821 72.9559 24.0622 72.7861C24.5423 72.6073 25.0491 72.2943 25.5736 71.8384C26.0982 71.3824 26.4893 70.9265 26.7294 70.4705C26.9783 70.0145 27.0761 69.5675 27.0317 69.1384C26.9872 68.7003 26.7916 68.2891 26.4449 67.8867C26.107 67.4934 25.7248 67.2341 25.3069 67.1268C24.8891 67.0196 24.4356 67.0553 23.9467 67.2252C23.4666 67.404 22.9509 67.7169 22.4264 68.1818C21.9018 68.6377 21.5196 69.0937 21.2795 69.5496C21.0395 70.0056 20.9417 70.4526 20.9861 70.8818C21.0306 71.3198 21.2262 71.7311 21.564 72.1244Z" fill="white"/>
<path d="M27 81.4526L34.1854 73L38.129 75.8641C38.804 76.3564 39.3014 76.9063 39.6211 77.5053C39.932 78.1044 40.0563 78.7198 39.9764 79.3599C39.8965 80 39.6034 80.6155 39.0971 81.2063C38.582 81.8136 38.0046 82.2157 37.3563 82.4209C36.7079 82.6261 36.0417 82.6425 35.3312 82.4784C34.6295 82.306 33.9279 81.9695 33.2351 81.4689L30.8814 79.7621L32.4002 77.9812L34.2565 79.3271C34.5496 79.5405 34.8338 79.6882 35.1003 79.7702C35.3667 79.8523 35.6154 79.8605 35.8552 79.7949C36.095 79.7292 36.3082 79.5733 36.5214 79.3271C36.7256 79.0891 36.8411 78.8511 36.8589 78.6214C36.8766 78.3916 36.8145 78.1618 36.6635 77.9402C36.5125 77.7187 36.2904 77.4971 35.9973 77.2837L35.1269 76.6518L29.5047 83.2661L27.0266 81.4689L27 81.4526ZM31.9472 85.0387L33.013 79.5405L35.6509 81.4526L34.6473 87L31.9472 85.0387Z" fill="white"/>
</svg>
