<svg width="54" height="136" viewBox="0 0 54 136" fill="none" xmlns="http://www.w3.org/2000/svg">
<g clip-path="url(#clip0_493_182)">
<path d="M32.0154 128.649L23.5821 136L18.2847 129.914L20.1302 128.307L23.4369 132.102L24.8638 130.854L21.8306 127.375L23.6334 125.803L26.6666 129.282L28.1875 127.957L24.898 124.187L26.7435 122.58L32.0239 128.641L32.0154 128.649Z" fill="white"/>
<path d="M22.5911 116.529L14.8756 125.461L13.124 122.503L16.1999 119.17C16.8664 118.452 17.5585 117.742 18.2762 117.042C18.9939 116.341 19.7287 115.64 20.4806 114.947L20.8224 115.529C19.8569 115.862 18.8914 116.178 17.943 116.486C16.9945 116.794 16.0461 117.067 15.0977 117.315L10.7316 118.46L9.00562 115.537L20.4892 112.964L22.5996 116.529H22.5911Z" fill="white"/>
<path d="M17.1996 106.451L6.69865 110.315L3.91321 102.741L6.21163 101.895L7.94612 106.622L9.72333 105.964L8.13409 101.639L10.3727 100.81L11.9619 105.135L13.8502 104.442L12.1243 99.7498L14.4227 98.9036L17.1996 106.451Z" fill="white"/>
<path d="M13.3205 95.0316L2.32402 97.1001L1.43542 92.3648C1.28162 91.5442 1.29871 90.8006 1.47814 90.1339C1.65757 89.4672 1.99934 88.903 2.49491 88.4586C2.99048 88.0141 3.62276 87.7149 4.40029 87.5696C5.18637 87.4243 5.887 87.4671 6.49364 87.7149C7.10029 87.9628 7.6044 88.3731 7.99744 88.9543C8.39048 89.5356 8.6639 90.2365 8.82624 91.0741L9.35598 93.9119L7.04048 94.3478L6.62181 92.1169C6.55345 91.7665 6.45092 91.4673 6.31421 91.2365C6.1775 91.0057 5.99807 90.8348 5.78447 90.7408C5.57086 90.6467 5.30599 90.6211 4.98985 90.6809C4.67371 90.7408 4.43447 90.8519 4.26358 91.0228C4.09269 91.1938 3.98162 91.416 3.9389 91.681C3.89618 91.946 3.90472 92.2622 3.97307 92.6127L4.16959 93.664L12.7737 92.04L13.3376 95.0231L13.3205 95.0316ZM12.2012 89.0825L7.65567 92.7238L7.05757 89.5526L11.586 85.843L12.2012 89.0911V89.0825Z" fill="white"/>
<path d="M11.2442 79.0393L7.35652 79.0649L0.0853204 83.2874L0.0596874 79.7231L3.42614 78.0819C3.73374 77.9366 4.04133 77.7999 4.36602 77.6802C4.6907 77.5605 5.05811 77.4409 5.45969 77.3212V77.7657C5.04956 77.6631 4.68216 77.552 4.35747 77.4494C4.03279 77.3468 3.71665 77.2272 3.40905 77.0904L0.0169659 75.6031L-0.00866699 72.0474L7.32235 76.0391L11.21 76.0134L11.2356 79.0307L11.2442 79.0393Z" fill="white"/>
<path d="M11.6203 68.3377L0.606689 66.3632L1.46112 61.6193C1.60637 60.7987 1.89688 60.1149 2.33264 59.5593C2.7684 59.0037 3.30669 58.6105 3.95606 58.3712C4.60542 58.1319 5.32314 58.0892 6.10068 58.2259C6.88675 58.3712 7.53612 58.6618 8.04878 59.1149C8.56144 59.5679 8.91175 60.1406 9.11682 60.8244C9.31334 61.5082 9.33897 62.2774 9.19372 63.1151L8.68106 65.9529L6.35701 65.5341L6.75859 63.3031C6.8184 62.9442 6.80985 62.6364 6.73296 62.3629C6.65606 62.0894 6.5108 61.8672 6.30574 61.6877C6.10068 61.5167 5.84435 61.397 5.53675 61.3458C5.21207 61.2859 4.93011 61.303 4.68232 61.397C4.43454 61.4911 4.22947 61.6535 4.06713 61.8843C3.90479 62.115 3.79371 62.4057 3.72536 62.7647L3.53739 63.816L12.1586 65.3631L11.6203 68.3548V68.3377Z" fill="white"/>
<path d="M14.2262 55.8754L3.69958 52.0889L6.42522 44.4987L8.73218 45.3278L7.03186 50.0631L8.80908 50.7042L10.3727 46.362L12.6198 47.174L11.0562 51.5162L12.9531 52.2L14.6448 47.4903L16.9518 48.3194L14.2347 55.884L14.2262 55.8754Z" fill="white"/>
<path d="M18.5923 44.6439L8.84326 39.1478L11.21 34.9424C11.6202 34.2159 12.1072 33.6603 12.6797 33.2671C13.2521 32.8739 13.8673 32.6602 14.5338 32.6346C15.2002 32.609 15.8752 32.7885 16.5673 33.1816C17.2679 33.5748 17.7635 34.062 18.0711 34.6433C18.3787 35.2245 18.4983 35.8656 18.4214 36.5579C18.3531 37.2503 18.1053 37.9768 17.6866 38.7119L16.2683 41.2249L14.2176 40.071L15.3284 38.0965C15.5078 37.7802 15.6189 37.4896 15.6616 37.2246C15.7043 36.9597 15.6787 36.7203 15.5762 36.5066C15.4736 36.293 15.2771 36.1049 15.0037 35.9511C14.7303 35.7972 14.4654 35.7288 14.2262 35.7459C13.9869 35.763 13.7648 35.8656 13.5512 36.0365C13.3461 36.216 13.1496 36.4554 12.9702 36.7716L12.449 37.7033L20.079 42.0027L18.5923 44.6439ZM21.5572 39.3701L15.7385 39.2333L17.3192 36.4212L23.1721 36.4981L21.5486 39.3786L21.5572 39.3701Z" fill="white"/>
<path d="M28.2047 30.1472C27.5895 30.8994 26.9402 31.4636 26.2566 31.8397C25.5731 32.2157 24.8725 32.3696 24.1547 32.3012C23.437 32.2328 22.7107 31.8995 21.9845 31.3097L23.813 29.0788C24.0864 29.2754 24.3683 29.3951 24.6418 29.4292C24.9237 29.4634 25.1971 29.4036 25.462 29.2668C25.7269 29.1301 25.9918 28.9078 26.2395 28.6087C26.4446 28.3608 26.5899 28.1215 26.6668 27.8992C26.7437 27.677 26.7607 27.4804 26.7266 27.3009C26.6838 27.1214 26.5984 26.9761 26.4532 26.8564C26.325 26.7453 26.1712 26.694 26.0088 26.694C25.838 26.694 25.6414 26.7624 25.4022 26.8821C25.163 27.0017 24.881 27.1983 24.5563 27.4719L23.6592 28.1899C22.8731 28.8224 22.1041 29.1899 21.3522 29.3096C20.6003 29.4292 19.8826 29.207 19.2076 28.6514C18.6607 28.1984 18.3019 27.6599 18.131 27.0188C17.9601 26.3863 17.9772 25.7111 18.1737 24.9931C18.3702 24.2751 18.7547 23.5827 19.3187 22.8904C19.8911 22.1895 20.5063 21.6766 21.1557 21.3604C21.8051 21.0441 22.4544 20.9159 23.1123 20.9928C23.7617 21.0612 24.3769 21.3262 24.9408 21.7877L23.0952 24.0443C22.7962 23.8306 22.4886 23.7537 22.181 23.8135C21.8734 23.8733 21.5573 24.0956 21.2497 24.4717C21.0532 24.711 20.9164 24.9332 20.8481 25.1298C20.7797 25.335 20.7626 25.5059 20.8054 25.6683C20.8481 25.8307 20.9335 25.9504 21.0617 26.0615C21.1984 26.1726 21.3522 26.2325 21.5145 26.2325C21.6854 26.2325 21.8734 26.1812 22.087 26.0701C22.3006 25.9589 22.5484 25.7965 22.8304 25.5658L23.5652 24.976C24.0522 24.5828 24.5221 24.2836 24.975 24.0785C25.4278 23.8733 25.8465 23.7537 26.2481 23.7109C26.6497 23.6767 27.0342 23.7109 27.393 23.8477C27.7519 23.9759 28.1022 24.1725 28.4269 24.4375C28.9994 24.9076 29.3668 25.4375 29.5291 26.0444C29.7 26.6513 29.6658 27.3009 29.4437 27.9933C29.2215 28.6856 28.8114 29.3951 28.2133 30.1301L28.2047 30.1472Z" fill="white"/>
<path d="M37.6633 20.591C36.8857 21.2492 36.0398 21.668 35.1256 21.8646C34.2114 22.0612 33.2971 21.9843 32.3829 21.6424C31.4686 21.3005 30.6057 20.6509 29.811 19.7106C29.0079 18.7533 28.5123 17.796 28.3329 16.8301C28.1449 15.8642 28.2303 14.9497 28.5807 14.0863C28.931 13.223 29.4863 12.4623 30.2639 11.8042C31.0414 11.146 31.8873 10.7272 32.793 10.5306C33.7072 10.334 34.6215 10.4109 35.5357 10.7528C36.45 11.0947 37.3215 11.7443 38.1246 12.7016C38.9278 13.6504 39.4148 14.6077 39.5943 15.5736C39.7737 16.5395 39.6882 17.4541 39.3465 18.3174C39.0047 19.1807 38.4408 19.9414 37.6633 20.5996V20.591ZM35.9629 18.5653C36.3474 18.2405 36.5952 17.8729 36.7063 17.4712C36.8174 17.0694 36.7917 16.6335 36.6294 16.172C36.467 15.7104 36.168 15.2232 35.7408 14.7103C35.305 14.1975 34.8778 13.8214 34.442 13.582C34.0063 13.3427 33.5876 13.2401 33.1689 13.2829C32.7503 13.3256 32.3487 13.5051 31.9642 13.8299C31.5797 14.1547 31.3319 14.5137 31.2294 14.9155C31.1183 15.3172 31.1439 15.7531 31.3063 16.2232C31.4686 16.6934 31.7677 17.1806 32.1949 17.6934C32.6221 18.2063 33.0579 18.5738 33.4851 18.8131C33.9208 19.0525 34.3395 19.155 34.7582 19.1123C35.1769 19.0696 35.5699 18.8901 35.9544 18.5653H35.9629Z" fill="white"/>
<path d="M44.9002 14.8214L39.5002 5.01741L42.3968 3.41902L46.8483 5.98328C47.2328 6.20552 47.6088 6.4363 47.9676 6.67563C48.3265 6.91496 48.7025 7.18848 49.087 7.4962C49.4714 7.80391 49.8987 8.18 50.3601 8.62447L50.1294 8.75268C49.9157 8.41078 49.6594 8.00905 49.3689 7.56458C49.0784 7.11156 48.7964 6.67563 48.523 6.23116C48.2496 5.79523 48.0189 5.41914 47.848 5.10288L45.8658 1.51291L48.5999 0.00854492L53.9999 9.81258L51.1034 11.411L46.9594 9.03475C46.4895 8.76123 46.0623 8.50481 45.6863 8.24838C45.3018 8.0005 44.9173 7.72698 44.5328 7.42781C44.1398 7.12865 43.6955 6.7782 43.1828 6.38501L43.4563 6.23116C43.7468 6.67563 44.0287 7.11156 44.3192 7.54748C44.6097 7.98341 44.8661 8.39369 45.0968 8.77833C45.3275 9.15442 45.524 9.47923 45.6692 9.75275L47.643 13.3342L44.9088 14.8385L44.9002 14.8214Z" fill="white"/>
</g>
<defs>
<clipPath id="clip0_493_182">
<rect width="54" height="136" fill="white"/>
</clipPath>
</defs>
</svg>
