<svg width="72" height="79" viewBox="0 0 72 79" fill="none" xmlns="http://www.w3.org/2000/svg">
<path d="M11.0881 79L0 77.6452L0.903407 69L3.33239 69.2949L2.76989 74.6866L4.64488 74.917L5.15625 69.977L7.52557 70.2627L7.01421 75.2028L9.00852 75.4424L9.57102 70.0783L12 70.3733L11.1051 78.9908L11.0881 79Z" fill="white"/>
<path d="M12.6724 67L7.47414 60.2786L9.71552 60.9664L2 63.2649L3.02586 59.8259L4.68966 59.3818C5.09483 59.2687 5.47414 59.1903 5.82759 59.1468C6.18104 59.1032 6.51724 59.0684 6.82759 59.0336C7.13793 59.0075 7.43966 58.9552 7.72414 58.8943L7.4569 59.791C7.25862 59.5734 7.03448 59.3557 6.7931 59.1555C6.55172 58.9552 6.2931 58.7376 6.02586 58.4938C5.75862 58.2587 5.48276 57.9801 5.2069 57.658L4.06034 56.3433L5.06035 53L10.0948 59.0423L8 58.4067L16 55.8731L14.9397 59.408L12.7241 60.0261C12.3535 60.1306 12.0517 60.2003 11.8103 60.2438C11.569 60.2873 11.3448 60.3309 11.1552 60.357C10.9655 60.3831 10.7586 60.4266 10.5345 60.4963L10.6552 60.1045C10.8017 60.2699 10.9569 60.4266 11.1034 60.5572C11.25 60.6965 11.4138 60.8445 11.5862 61.0187C11.7672 61.1928 11.9741 61.4279 12.2155 61.7239L13.6983 63.5435L12.6724 66.9826V67Z" fill="white"/>
<path d="M16.6478 53L7 47.7672L9.14856 43.4123C9.52187 42.6648 9.98642 42.0824 10.5422 41.6738C11.1063 41.2653 11.7202 41.0393 12.3839 41.0045C13.0558 40.9698 13.7278 41.1349 14.4163 41.5087C15.1048 41.8825 15.6274 42.3692 15.9676 42.9603C16.3077 43.5514 16.4819 44.212 16.4653 44.9422C16.457 45.6723 16.2579 46.4199 15.8763 47.1848L14.5905 49.7925L12.5581 48.6886L13.5701 46.6372C13.7278 46.3156 13.8107 46.0026 13.819 45.7158C13.819 45.4289 13.7526 45.1682 13.6199 44.9335C13.4789 44.7075 13.2798 44.5162 13.006 44.3685C12.724 44.2207 12.4585 44.1512 12.2014 44.1599C11.9442 44.1686 11.7036 44.2729 11.4879 44.4467C11.2722 44.6205 11.0814 44.8726 10.9238 45.1942L10.451 46.1591L18 50.2532L16.6478 52.9913V53Z" fill="white"/>
<path d="M23.3186 42L14 35.4062L15.8797 33L23.159 38.1501L25.9607 34.5619L28 36.0056L23.3274 42H23.3186Z" fill="white"/>
<path d="M34.1614 29.4697C33.3937 30.1395 32.5367 30.5969 31.5994 30.8338C30.6621 31.0707 29.698 31.0543 28.7161 30.7848C27.7341 30.5152 26.7968 29.9516 25.9041 29.094C25.0025 28.2363 24.4223 27.346 24.1723 26.4393C23.9224 25.5327 23.9402 24.6505 24.2527 23.8092C24.5562 22.9597 25.0918 22.2001 25.8595 21.5303C26.6272 20.8605 27.4752 20.4031 28.4125 20.1662C29.3499 19.9293 30.305 19.9457 31.287 20.2152C32.2689 20.4848 33.2151 21.0565 34.1078 21.9142C35.0005 22.7718 35.5807 23.654 35.8307 24.5688C36.0806 25.4755 36.0538 26.3577 35.7503 27.199C35.4468 28.0403 34.9112 28.7999 34.1435 29.4697H34.1614ZM32.251 27.6482C32.6349 27.3133 32.867 26.9539 32.9563 26.5619C33.0455 26.1698 32.983 25.7614 32.7867 25.3203C32.5903 24.8874 32.2421 24.4381 31.769 23.9807C31.287 23.5151 30.8138 23.1802 30.3407 22.976C29.8765 22.7718 29.4213 22.6983 28.9928 22.7637C28.5643 22.829 28.1537 23.0251 27.7698 23.3599C27.3949 23.6867 27.1628 24.0542 27.0735 24.4381C26.9843 24.8302 27.0467 25.2468 27.2431 25.6797C27.4395 26.1126 27.7877 26.57 28.2697 27.0274C28.7518 27.4849 29.2249 27.8198 29.6891 28.0158C30.1533 28.2118 30.6085 28.2853 31.037 28.22C31.4655 28.1546 31.8761 27.9586 32.251 27.6319V27.6482Z" fill="white"/>
<path d="M41.1288 23L35 14.2418L39.0601 11.7851C39.7639 11.3623 40.4592 11.1071 41.1459 11.0273C41.8326 10.9475 42.485 11.0432 43.0858 11.3065C43.6867 11.5697 44.2103 12.0164 44.6395 12.6385C45.0773 13.2687 45.3004 13.8829 45.3004 14.4971C45.3004 15.1112 45.1116 15.6856 44.7253 16.2359C44.3391 16.7783 43.7897 17.2729 43.0687 17.7036L40.6395 19.1713L39.3434 17.3287L41.2575 16.1721C41.5579 15.9887 41.7983 15.7972 41.9614 15.5978C42.1245 15.3984 42.2103 15.183 42.2189 14.9677C42.2275 14.7523 42.1416 14.513 41.97 14.2578C41.7983 14.0105 41.5923 13.835 41.3691 13.7473C41.1459 13.6595 40.897 13.6436 40.6309 13.6994C40.3648 13.7552 40.0815 13.8749 39.7725 14.0583L38.8712 14.6008L43.6695 21.4526L41.1116 23H41.1288ZM46.2189 19.9131L41.103 17.2888L43.824 15.6457L49 18.238L46.2189 19.9211V19.9131Z" fill="white"/>
<path d="M51.5065 17L47 6.32023L54.5282 3L55.5094 5.33482L50.8119 7.4033L51.576 9.20546L55.8828 7.30564L56.8466 9.58719L52.5398 11.487L53.3473 13.4046L58.0188 11.345L59 13.6798L51.4978 16.9822L51.5065 17Z" fill="white"/>
<path d="M62.7229 12L60 1.29471L64.7825 0.166953C65.6029 -0.0266178 66.3622 -0.0518631 67.0604 0.0912108C67.7585 0.234285 68.3433 0.53726 68.8233 1.00015C69.3033 1.46303 69.6436 2.069 69.8356 2.82645C70.0276 3.59231 70.0189 4.28243 69.8007 4.88839C69.5825 5.49435 69.1898 6.01615 68.6225 6.42854C68.0553 6.84093 67.3484 7.15232 66.5018 7.35431L63.6393 8.0276L63.0633 5.77208L65.3149 5.24187C65.6727 5.1577 65.9695 5.03988 66.1964 4.89681C66.432 4.75373 66.5891 4.56858 66.6764 4.34976C66.7636 4.13094 66.7636 3.87004 66.6938 3.55864C66.624 3.24725 66.4844 3.02001 66.3011 2.86011C66.1178 2.7002 65.8909 2.60762 65.6116 2.57396C65.3324 2.5403 65.0182 2.57396 64.6604 2.65812L63.6044 2.91061L65.7338 11.2846L62.7229 12ZM68.7273 10.5777L64.7651 6.3023L67.968 5.54485L72 9.8034L68.7186 10.5777H68.7273Z" fill="white"/>
</svg>
