<svg width="54" height="17" viewBox="0 0 54 17" fill="none" xmlns="http://www.w3.org/2000/svg">
<path d="M2.65333 13.0513L0.884521 2.00269L3.8838 1.52417L4.55885 5.71973L8.53224 5.0874L7.85718 0.891846L10.8565 0.41333L12.6253 11.4619L9.62599 11.9404L8.91675 7.50562L4.94336 8.13794L5.6526 12.5728L2.65333 13.0513Z" fill="white"/>
<path d="M16.6671 11.2654L16.8807 0.0800781L24.9471 0.233887L24.9044 2.67774L19.8715 2.58374L19.8373 4.47217L24.4516 4.55762L24.4088 6.94165L19.7946 6.8562L19.7604 8.86426L24.7592 8.95825L24.7164 11.4021L16.6842 11.2483L16.6671 11.2654Z" fill="white"/>
<path d="M28.6813 11.8037L30.7748 0.814941L35.5087 1.7207C36.329 1.87451 37.0126 2.16504 37.568 2.5752C38.1234 2.9939 38.5165 3.50659 38.7557 4.13037C38.995 4.75415 39.0377 5.45484 38.8839 6.23242C38.7301 7.01856 38.431 7.65088 37.9782 8.12085C37.5253 8.59937 36.9613 8.90699 36.2777 9.06934C35.5941 9.22315 34.8336 9.22315 33.9962 9.06934L31.1678 8.53101L31.6122 6.21533L33.8424 6.64258C34.1927 6.71094 34.5089 6.71948 34.7738 6.6853C35.0387 6.64258 35.2608 6.54004 35.4317 6.37769C35.6026 6.21533 35.7137 5.96753 35.7736 5.65991C35.8334 5.34375 35.8163 5.07886 35.7223 4.85669C35.6283 4.63452 35.4659 4.45508 35.2267 4.30982C34.996 4.16455 34.6969 4.06201 34.3466 3.99365L33.2955 3.79712L31.6549 12.4019L28.6727 11.8293L28.6813 11.8037ZM34.6285 12.9316L32.9025 7.37744L36.0726 7.98413L37.8671 13.5554L34.62 12.9402L34.6285 12.9316Z" fill="white"/>
<path d="M46.1043 16.5634C45.1558 16.196 44.3782 15.6491 43.7801 14.9399C43.1734 14.2307 42.806 13.3847 42.6693 12.4191C42.5326 11.445 42.6949 10.3854 43.1392 9.24042C43.5921 8.07831 44.1988 7.18964 44.9593 6.56586C45.7198 5.94208 46.5657 5.5832 47.4886 5.47211C48.4114 5.36103 49.3514 5.49775 50.2999 5.86518C51.2484 6.23261 52.0174 6.77949 52.6241 7.48017C53.2308 8.18085 53.5982 9.0268 53.735 10.0009C53.8717 10.975 53.7178 12.0432 53.2564 13.2053C52.8035 14.3588 52.1969 15.2475 51.4364 15.8627C50.6759 16.478 49.8299 16.8454 48.9071 16.9565C47.9842 17.0676 47.0442 16.9309 46.1043 16.5634ZM47.0699 14.1025C47.5399 14.2905 47.9757 14.3332 48.3858 14.2392C48.796 14.1452 49.1634 13.9145 49.4881 13.5471C49.8214 13.1796 50.1034 12.6926 50.3512 12.0688C50.599 11.445 50.7186 10.881 50.7271 10.3854C50.7271 9.88984 50.616 9.47114 50.3853 9.1208C50.1546 8.77045 49.8043 8.50556 49.3343 8.32612C48.8643 8.14667 48.4285 8.10395 48.0269 8.19794C47.6168 8.29194 47.2493 8.52265 46.9161 8.89008C46.5828 9.25751 46.2923 9.75312 46.0445 10.3769C45.8053 11.0007 45.6771 11.5561 45.6771 12.0517C45.6771 12.5473 45.7882 12.966 46.0189 13.3164C46.2496 13.6667 46.5999 13.9316 47.0699 14.111V14.1025Z" fill="white"/>
</svg>
