<svg width="101" height="29" viewBox="0 0 101 29" fill="none" xmlns="http://www.w3.org/2000/svg">
<path d="M9 4.70908L2.36929 13L0 11.2909L6.63068 3L9 4.70908Z" fill="white"/>
<path d="M7 16.9797L12.1592 7L14.9658 8.59535L15.2052 13.8063C15.2217 14.2572 15.23 14.6994 15.23 15.1329C15.23 15.5664 15.1969 16.0347 15.1474 16.5376C15.0979 17.0405 15.0153 17.604 14.8998 18.2456L14.6769 18.1156C14.842 17.7427 15.0318 17.3092 15.2465 16.815C15.4611 16.3208 15.6757 15.8352 15.8903 15.3583C16.1049 14.8815 16.2948 14.4826 16.4599 14.1705L18.3502 10.5116L21 12.0202L15.8408 22L13.0342 20.3959L12.8031 15.5491C12.7783 15.0029 12.7701 14.4913 12.7783 14.0318C12.7783 13.5722 12.8031 13.0867 12.8444 12.5924C12.8856 12.0982 12.9351 11.5173 12.9847 10.867L13.2488 11.0144C13.0425 11.5 12.8361 11.9856 12.6215 12.4711C12.4151 12.9566 12.217 13.3988 12.0271 13.8063C11.8373 14.2139 11.6804 14.552 11.5401 14.8295L9.65802 18.4711L7.00826 16.9624L7 16.9797Z" fill="white"/>
<path d="M21 23.8937L24.2164 13L27.3236 13.9832L28.5665 19.0559C28.6757 19.491 28.7681 19.926 28.8437 20.3611C28.9192 20.7875 28.9864 21.2573 29.0284 21.762C29.0704 22.2666 29.104 22.8409 29.1124 23.4935L28.8689 23.4151C28.9612 23.0149 29.0704 22.545 29.188 22.0143C29.3055 21.4835 29.4231 20.9615 29.5491 20.4481C29.6667 19.9347 29.7842 19.5084 29.885 19.1604L31.0607 15.1666L34 16.0976L30.792 27L27.6847 26.0168L26.5174 21.3008C26.3831 20.7613 26.2823 20.2654 26.1983 19.8129C26.1143 19.3605 26.0472 18.8819 25.9884 18.3859C25.9296 17.89 25.8708 17.3157 25.7952 16.6632L26.0891 16.7589C25.98 17.2809 25.8624 17.803 25.7448 18.325C25.6273 18.8471 25.5181 19.3257 25.4089 19.7607C25.2997 20.2045 25.2074 20.5699 25.115 20.8657L23.9393 24.8421L21 23.9111V23.8937Z" fill="white"/>
<path d="M41.938 28.9554C40.9209 28.8485 40.0159 28.5278 39.2315 27.9933C38.4472 27.4499 37.8611 26.7105 37.456 25.775C37.0595 24.8396 36.9216 23.735 37.0422 22.4521C37.1629 21.1604 37.5077 20.0913 38.0766 19.2539C38.6454 18.4165 39.3608 17.8107 40.2314 17.4365C41.1019 17.0624 42.05 16.9287 43.0671 17.0356C44.0842 17.1425 44.9892 17.4633 45.7649 17.9978C46.5493 18.5323 47.1354 19.2717 47.5405 20.216C47.937 21.1514 48.0835 22.265 47.9542 23.5657C47.8335 24.8575 47.4888 25.9176 46.9199 26.755C46.351 27.5924 45.6356 28.1982 44.7651 28.5635C43.8945 28.9376 42.9551 29.0713 41.9294 28.9644L41.938 28.9554ZM42.1966 26.2116C42.7051 26.265 43.1447 26.1848 43.5067 25.971C43.8773 25.7572 44.1703 25.4187 44.3858 24.9643C44.6099 24.5011 44.7478 23.931 44.8168 23.2361C44.8857 22.5412 44.8513 21.9443 44.722 21.4454C44.5927 20.9466 44.3686 20.5546 44.0411 20.2784C43.7221 19.9933 43.3084 19.833 42.7999 19.7795C42.3 19.7261 41.8604 19.8062 41.4898 20.02C41.1191 20.2338 40.8261 20.5724 40.602 21.0267C40.3779 21.49 40.2314 22.069 40.1624 22.7639C40.0934 23.4588 40.1279 24.0468 40.2658 24.5456C40.3951 25.0445 40.6278 25.4276 40.9468 25.7127C41.2657 25.9978 41.6794 26.1581 42.1793 26.2116H42.1966Z" fill="white"/>
<path d="M58.1997 28.9632C57.1481 29.0701 56.185 28.9454 55.3013 28.5711C54.4177 28.1967 53.6843 27.5996 53.1099 26.7618C52.5356 25.9241 52.1821 24.8635 52.0496 23.5801C51.917 22.2878 52.0496 21.1738 52.456 20.2291C52.8625 19.2933 53.4545 18.5535 54.2498 18.0099C55.0451 17.4662 55.9552 17.1454 56.9891 17.0385C57.7048 16.9672 58.3764 16.9939 59.0038 17.1276C59.6311 17.2613 60.1878 17.493 60.6827 17.8138C61.1775 18.1436 61.6017 18.5625 61.9374 19.0794C62.2732 19.5963 62.5206 20.2024 62.662 20.8975L59.4986 21.2273C59.4456 20.9777 59.3572 20.7638 59.2335 20.5677C59.1098 20.3806 58.9596 20.2202 58.7829 20.0865C58.6061 19.9617 58.3941 19.8637 58.1555 19.8102C57.9169 19.7567 57.6518 19.7389 57.369 19.7746C56.8477 19.828 56.4236 20.0063 56.0878 20.3004C55.752 20.5945 55.5134 20.9956 55.3809 21.4946C55.2483 21.9937 55.213 22.5819 55.2748 23.2593C55.3455 23.9634 55.5046 24.5516 55.7432 25.0061C55.9817 25.4606 56.291 25.7904 56.6798 25.9954C57.0598 26.2004 57.5104 26.2717 58.0141 26.2182C58.3057 26.1914 58.5531 26.1202 58.774 26.0221C58.9949 25.9241 59.1805 25.7904 59.3307 25.63C59.4898 25.4696 59.6046 25.2824 59.693 25.0685C59.7814 24.8546 59.8255 24.6229 59.8344 24.3644L62.9978 24.0346C63.0155 24.5337 62.9271 25.0506 62.7504 25.5854C62.5648 26.1201 62.282 26.6371 61.8932 27.1183C61.5044 27.5996 61.0008 28.0096 60.3911 28.3393C59.7814 28.6691 59.0568 28.883 58.2085 28.9721L58.1997 28.9632Z" fill="white"/>
<path d="M69.191 26.9915L66 16.2705L73.8349 14L74.5354 16.3473L69.6494 17.7643L70.1855 19.5824L74.6651 18.285L75.3482 20.5726L70.8687 21.87L71.4394 23.7991L76.2995 22.3907L77 24.738L69.1997 27L69.191 26.9915Z" fill="white"/>
<path d="M81.9446 23L77 12.8021L79.8767 11.2742L84.1376 14.0419C84.5045 14.2864 84.863 14.5309 85.2049 14.7841C85.5468 15.0373 85.897 15.3341 86.2639 15.6572C86.6307 15.989 87.031 16.3819 87.4729 16.8533L87.2478 16.9755C87.0477 16.6176 86.8142 16.2072 86.5473 15.7357C86.2805 15.2643 86.0137 14.8015 85.7635 14.3475C85.5051 13.8935 85.3049 13.5006 85.1465 13.1775L83.3371 9.4406L86.0554 8L91 18.1979L88.1233 19.7258L84.1543 17.1502C83.704 16.8533 83.2954 16.5739 82.9369 16.3033C82.57 16.0326 82.2031 15.7445 81.8362 15.4214C81.4694 15.0984 81.0357 14.7317 80.5521 14.3126L80.8273 14.1641C81.0941 14.6269 81.361 15.0809 81.6194 15.5437C81.8863 15.9977 82.1197 16.4255 82.3365 16.8184C82.5533 17.2113 82.7284 17.5518 82.8618 17.8312L84.6629 21.5507L81.9446 23Z" fill="white"/>
<path d="M90.5161 8.05094L89 6.08176L96.7358 0L98.252 1.96913L95.5901 4.0603L101 11.1005L98.5879 13L93.178 5.95976L90.5161 8.05094Z" fill="white"/>
</svg>
