<svg width="43" height="56" viewBox="0 0 43 56" fill="none" xmlns="http://www.w3.org/2000/svg">
<path d="M6.57074 55.9914L0 46.7274L2.5823 45L7.71159 52.2359L11.5674 49.6578L13 51.6859L6.56188 56L6.57074 55.9914Z" fill="white"/>
<path d="M20.3607 45.4061C19.6662 46.0919 18.8983 46.5571 18.0404 46.8102C17.1826 47.0633 16.3085 47.0633 15.4016 46.8102C14.503 46.549 13.637 46.0021 12.8037 45.1613C11.9704 44.3123 11.423 43.4388 11.1779 42.5326C10.9328 41.6265 10.941 40.7531 11.2024 39.8959C11.472 39.0469 11.9458 38.2796 12.6403 37.5939C13.3347 36.9081 14.1027 36.4429 14.9523 36.1898C15.802 35.9367 16.6843 35.9367 17.5911 36.1898C18.4979 36.451 19.3639 36.9979 20.2054 37.8469C21.0387 38.6877 21.5779 39.5694 21.823 40.4674C22.0681 41.3735 22.06 42.2469 21.7904 43.0959C21.5289 43.9449 21.0469 44.7122 20.3607 45.3898V45.4061ZM18.5878 43.6102C18.931 43.2673 19.1433 42.9082 19.2169 42.5164C19.2904 42.1245 19.2332 41.7163 19.0453 41.2837C18.8574 40.851 18.5388 40.4102 18.0895 39.9612C17.6401 39.5041 17.199 39.1775 16.766 38.9816C16.333 38.7857 15.9245 38.7204 15.5323 38.7857C15.1402 38.851 14.7726 39.0551 14.4294 39.398C14.0863 39.7327 13.8821 40.1 13.8085 40.4918C13.735 40.8837 13.7922 41.3 13.9801 41.7327C14.168 42.1653 14.4866 42.6143 14.9441 43.0714C15.3935 43.5286 15.8264 43.847 16.2594 44.0429C16.6924 44.2388 17.1009 44.2959 17.4931 44.2306C17.8852 44.1653 18.2528 43.9612 18.596 43.6265L18.5878 43.6102Z" fill="white"/>
<path d="M29.6085 35L18 31.75L19.9726 28.8407L24.389 30.2386C25.3491 30.5443 26.3005 30.8763 27.2606 31.2345C28.2207 31.5927 29.1808 31.9684 30.1584 32.3615L29.7743 32.9294C29.0499 32.1781 28.3342 31.4267 27.6446 30.6841C26.9464 29.9415 26.2831 29.1814 25.6372 28.4126L22.6783 24.8743L24.6247 22L32 31.4966L29.626 35H29.6085Z" fill="white"/>
<path d="M35.9067 24L26 19.4925L29.1015 12L31.2709 12.9863L29.3407 17.6583L31.0152 18.4197L32.7887 14.137L34.9004 15.0973L33.1269 19.38L34.9086 20.1933L36.8306 15.5473L39 16.5336L35.915 24H35.9067Z" fill="white"/>
<path d="M40.8093 11L30 8.27832L31.1208 3.41124C31.3161 2.56903 31.6303 1.87755 32.0719 1.31903C32.5134 0.76051 33.0399 0.379283 33.6767 0.166514C34.3135 -0.0462547 35.0013 -0.055119 35.7655 0.139919C36.5382 0.334957 37.1496 0.680737 37.5996 1.16833C38.0497 1.66479 38.3384 2.26762 38.4572 2.97685C38.5761 3.69494 38.5421 4.47507 38.3383 5.33501L37.6676 8.24288L35.3919 7.66661L35.9184 5.37938C36.0033 5.0159 36.0287 4.69673 36.0033 4.41303C35.9778 4.12934 35.8844 3.89887 35.723 3.72156C35.5617 3.53539 35.3324 3.41127 35.0268 3.33149C34.7126 3.2517 34.4494 3.26053 34.2286 3.34918C34.0078 3.43783 33.8125 3.59744 33.6597 3.82794C33.5069 4.05844 33.388 4.35982 33.3031 4.7233L33.0569 5.79603L41.514 7.92374L40.8093 10.9823V11ZM42.2188 4.90062L36.6231 6.40774L37.3788 3.15417L43 1.56723L42.2273 4.90062H42.2188Z" fill="white"/>
</svg>
