<svg width="37" height="102" viewBox="0 0 37 102" fill="none" xmlns="http://www.w3.org/2000/svg">
<path d="M0 7.74864L7.80285 0L11.1206 3.34123L9.38191 6.4642C9.23072 6.73284 9.02074 7.07705 8.75197 7.4968C8.48319 7.91656 8.18923 8.36149 7.87006 8.83162C7.55089 9.30174 7.24013 9.74668 6.93776 10.1748C6.63539 10.603 6.37502 10.9556 6.15664 11.241L5.77026 10.8464C6.05583 10.6282 6.40861 10.3763 6.83697 10.0741C7.26533 9.77185 7.71047 9.46124 8.18083 9.14223C8.65118 8.82322 9.09636 8.5294 9.51632 8.26076C9.93628 7.99211 10.2806 7.78222 10.5494 7.6395L13.6739 5.91012L17 9.25137L9.19715 17L7.07212 14.8677L10.0875 11.8706C10.2638 11.6943 10.5074 11.4593 10.8098 11.1822C11.1122 10.8968 11.4481 10.5862 11.8093 10.2504C12.1705 9.91458 12.54 9.57038 12.9012 9.22618C13.2623 8.88199 13.5983 8.56298 13.9007 8.26076L14.0183 8.37827C13.6235 8.64692 13.212 8.91556 12.7668 9.1926C12.3301 9.46963 11.9017 9.72989 11.4733 9.99014C11.0449 10.2504 10.6586 10.477 10.2974 10.6785C9.93628 10.8884 9.63389 11.0563 9.39032 11.1822L5.4763 13.2726L3.72925 11.518L5.82906 7.59754C5.96344 7.35408 6.13142 7.05185 6.3414 6.69086C6.55138 6.32987 6.77816 5.93532 7.03014 5.50718C7.28211 5.07903 7.5509 4.65087 7.82807 4.21433C8.10525 3.77778 8.374 3.35803 8.64277 2.96346L8.79395 3.11456C8.49158 3.40839 8.17243 3.7442 7.81967 4.10519C7.4753 4.46618 7.13095 4.82717 6.78658 5.18816C6.44221 5.54915 6.13144 5.87655 5.84587 6.17877C5.5603 6.48099 5.32511 6.72444 5.14872 6.90073L2.13338 9.89778L0.00840742 7.76543L0 7.74864Z" fill="white"/>
<path d="M11 20.1803L22.6564 17L25 20.5288L17.5216 30L15.5818 27.0724L18.5749 23.5349C19.2244 22.7681 19.9179 22.0013 20.6464 21.2172C21.3749 20.4417 22.1122 19.6749 22.8495 18.9256L23.2357 19.5181C22.2614 19.9015 21.2696 20.2848 20.2777 20.6682C19.2859 21.0516 18.3116 21.3914 17.3461 21.6877L12.9223 23.0643L11.0088 20.1716L11 20.1803ZM14.3618 21.2694L16.3104 19.9973L19.7862 25.2426L17.8376 26.5147L14.3618 21.2694Z" fill="white"/>
<path d="M20.4856 37.4269C20.0688 36.3312 19.918 35.2726 20.0422 34.2604C20.1663 33.2389 20.5567 32.3289 21.2041 31.5117C21.8516 30.6946 22.7385 30.0538 23.8738 29.5802C25.0624 29.0788 26.1622 28.9024 27.1822 29.0509C28.2023 29.1995 29.0892 29.5988 29.8343 30.2488C30.5793 30.8989 31.1558 31.7346 31.5461 32.7468C31.8033 33.4154 31.9541 34.0747 31.9896 34.7154C32.025 35.3654 31.9718 35.9783 31.8033 36.5633C31.6348 37.1483 31.3864 37.6683 31.0405 38.1326C30.6946 38.5969 30.26 38.9684 29.7455 39.2563L28.557 36.164C28.7255 36.0433 28.8586 35.8947 28.965 35.7369C29.0715 35.5697 29.1424 35.3933 29.1779 35.1983C29.2134 35.0033 29.2222 34.7897 29.1956 34.5761C29.169 34.3532 29.107 34.1211 29.0183 33.8797C28.8231 33.3689 28.5393 32.9789 28.1668 32.7189C27.7942 32.4496 27.3508 32.3196 26.8363 32.3196C26.3219 32.3196 25.7542 32.4496 25.1245 32.7096C24.4947 32.9789 23.9892 33.2946 23.6078 33.6661C23.2264 34.0375 22.9869 34.4461 22.8893 34.9104C22.7918 35.3654 22.8361 35.8576 23.0401 36.3869C23.2175 36.8512 23.4304 37.2133 23.6787 37.464C23.9271 37.7148 24.202 37.8726 24.5036 37.9283C24.8052 37.9841 25.1156 37.9376 25.4349 37.8076L25.5857 38.3648L24.5923 35.7926L26.6767 34.9104L28.6014 39.9063L27.1113 40.5377C26.1267 40.9556 25.2043 41.0856 24.344 40.9463C23.4836 40.807 22.7208 40.4263 22.0556 39.8227C21.3904 39.2098 20.8759 38.4205 20.4945 37.4362L20.4856 37.4269Z" fill="white"/>
<path d="M35 46.1748L24.6733 49L24 45.8252L34.3267 43L35 46.1748Z" fill="white"/>
<path d="M26.0275 58.1479C25.9376 57.0942 26.0683 56.1291 26.4195 55.2437C26.7707 54.3583 27.3262 53.6411 28.1022 53.0656C28.87 52.4989 29.8501 52.1536 31.0263 52.0385C32.2107 51.9234 33.2317 52.0651 34.0894 52.4812C34.947 52.8974 35.6168 53.4994 36.1069 54.3052C36.597 55.1109 36.8829 56.0229 36.9727 57.0588C37.0299 57.776 36.9972 58.4489 36.8747 59.0687C36.744 59.6974 36.5316 60.2552 36.2294 60.751C35.9272 61.2469 35.5351 61.663 35.0614 61.9906C34.5876 62.3182 34.0322 62.5573 33.3951 62.699L33.1255 59.5203C33.3542 59.4672 33.5503 59.3786 33.73 59.2635C33.9097 59.1484 34.0567 58.9979 34.1711 58.8208C34.2936 58.6437 34.3753 58.4312 34.4243 58.201C34.4733 57.962 34.4896 57.7052 34.4651 57.413C34.4243 56.8906 34.2691 56.4568 33.9995 56.1203C33.73 55.7838 33.3706 55.5359 32.9131 55.3942C32.4557 55.2526 31.9167 55.2083 31.2959 55.2703C30.6506 55.3323 30.1115 55.4828 29.6949 55.7219C29.2702 55.9521 28.968 56.262 28.7801 56.6427C28.5922 57.0234 28.5188 57.4661 28.5596 57.9797C28.5841 58.2719 28.6412 58.5198 28.7311 58.7411C28.8209 58.9625 28.9435 59.1484 29.0905 59.3078C29.2375 59.4672 29.409 59.5911 29.6051 59.6708C29.8011 59.7594 30.0135 59.8125 30.2422 59.8213L30.5117 63C30.0543 63 29.5806 62.9203 29.0905 62.7344C28.6004 62.5484 28.1349 62.2562 27.6938 61.8578C27.2609 61.4594 26.8851 60.9547 26.5911 60.3437C26.2888 59.7328 26.1091 58.9979 26.0356 58.1479H26.0275Z" fill="white"/>
<path d="M36.8425 70L26 69.5118L26.1575 67L37 67.4882L36.8425 70Z" fill="white"/>
<path d="M26.207 74.0083L36 79.6372L35.2071 83.5865L24 85L24.6539 81.7241L28.97 81.325C29.91 81.2419 30.8747 81.1837 31.8719 81.1421C32.8692 81.1088 33.8583 81.0756 34.8392 81.0673L34.7084 81.7241C33.8092 81.325 32.9101 80.9259 31.9945 80.5268C31.0872 80.1277 30.2125 79.7037 29.3869 79.263L25.5531 77.2343L26.1989 74L26.207 74.0083ZM27.7112 76.9849L29.8365 77.4255L28.6594 83.2955L26.534 82.8549L27.7112 76.9849Z" fill="white"/>
<path d="M22.2014 88.0172L33 92.3659L31.6591 95.434L26.3403 96.1989C25.8844 96.2676 25.4285 96.3192 24.9815 96.3536C24.5346 96.388 24.0519 96.4052 23.5334 96.4052C23.0149 96.4052 22.4249 96.3708 21.7544 96.3106L21.8617 96.07C22.264 96.2075 22.7289 96.3536 23.2563 96.5341C23.7837 96.706 24.3022 96.8779 24.8206 97.0497C25.3391 97.2216 25.7592 97.3763 26.0989 97.5138L30.059 99.1037L28.7986 102L18 97.6513L19.3409 94.5832L24.2843 93.8699C24.8474 93.7925 25.3659 93.7324 25.8397 93.6894C26.3134 93.6464 26.8051 93.6206 27.3236 93.612C27.8421 93.612 28.4321 93.5949 29.1025 93.5863L28.9773 93.8785C28.4499 93.7152 27.9315 93.5433 27.413 93.3714C26.8945 93.2081 26.4207 93.0448 25.9827 92.8901C25.5447 92.7354 25.1782 92.5979 24.8832 92.4862L20.941 90.8963L22.2014 88V88.0172Z" fill="white"/>
</svg>
