<svg width="102" height="123" viewBox="0 0 102 123" fill="none" xmlns="http://www.w3.org/2000/svg">
<path d="M1.64052 11.9841L0 1.71131L4.81789 1.06133C5.64677 0.950354 6.39793 0.989988 7.06276 1.18023C7.72759 1.37839 8.28021 1.71131 8.71192 2.1869C9.14363 2.6625 9.41993 3.26492 9.53218 3.98623C9.65306 4.72341 9.57533 5.36546 9.29904 5.92032C9.02274 6.47518 8.59102 6.91907 7.98662 7.26783C7.38223 7.6166 6.66563 7.83855 5.81084 7.95745L2.927 8.34585L2.58167 6.18189L4.85241 5.87276C5.21505 5.8252 5.51728 5.73801 5.75904 5.62703C6.0008 5.50814 6.17347 5.34961 6.28571 5.15937C6.39796 4.96913 6.42384 4.71548 6.37204 4.4222C6.32886 4.12891 6.21662 3.89904 6.05257 3.73258C5.88852 3.56613 5.67267 3.45515 5.40501 3.40759C5.13735 3.35211 4.81791 3.35211 4.46391 3.40759L3.40187 3.55027L4.68836 11.5878L1.6578 12L1.64052 11.9841ZM7.69309 11.1677L4.20485 6.82395L7.43408 6.38798L11 10.7238L7.69309 11.1677Z" fill="white"/>
<path d="M15.0082 10.8426L15.2305 0L23 0.165666L22.9506 2.54292L18.1029 2.44353L18.0617 4.2741L22.5062 4.36521L22.4568 6.67621L18.0124 6.58509L17.9712 8.53163L22.786 8.63103L22.7366 11L15 10.8343L15.0082 10.8426Z" fill="white"/>
<path d="M30.3813 12.1245L29 0L32.2784 0.716331L32.6611 5.38572C32.7443 6.40272 32.8026 7.41973 32.8358 8.46326C32.8691 9.49796 32.8941 10.5503 32.9024 11.6116L32.2617 11.4701C32.6611 10.4973 33.0605 9.54218 33.4599 8.60476C33.8593 7.66735 34.2837 6.74762 34.7246 5.84558L36.7632 1.7068L40 2.41429L34.3336 13L30.3813 12.1333V12.1245Z" fill="white"/>
<path d="M45.3452 16.5357C44.4212 16.162 43.6651 15.6339 43.0854 14.9514C42.5058 14.269 42.153 13.4565 42.0354 12.5384C41.9177 11.6122 42.0942 10.6048 42.5562 9.52418C43.0266 8.42735 43.6399 7.59052 44.396 7.01367C45.152 6.43682 45.9921 6.10371 46.8994 6.02247C47.815 5.94122 48.7307 6.07934 49.6548 6.45307C50.5789 6.8268 51.3266 7.34678 51.9146 8.03738C52.4943 8.71984 52.8471 9.52418 52.9647 10.4504C53.0823 11.3766 52.9059 12.3922 52.4355 13.489C51.965 14.5777 51.3518 15.4145 50.5957 15.9833C49.8396 16.5601 48.9995 16.8851 48.0922 16.9745C47.185 17.0638 46.2609 16.9176 45.3452 16.552V16.5357ZM46.3449 14.2121C46.807 14.399 47.2354 14.4477 47.6386 14.3583C48.0419 14.2771 48.4031 14.0577 48.7391 13.7246C49.0752 13.3834 49.3608 12.9203 49.6128 12.3353C49.8648 11.7422 49.9992 11.2141 50.0161 10.7429C50.0329 10.2716 49.932 9.87354 49.7052 9.54043C49.4868 9.20732 49.1424 8.94733 48.6803 8.76047C48.2267 8.58173 47.7983 8.53298 47.395 8.61422C46.9918 8.69547 46.6222 8.91484 46.2861 9.25607C45.9501 9.5973 45.6561 10.0604 45.4041 10.6535C45.152 11.2385 45.026 11.7666 45.0092 12.2378C45.0008 12.709 45.1016 13.1071 45.3284 13.4402C45.5552 13.7734 45.8913 14.0333 46.3449 14.2121Z" fill="white"/>
<path d="M54 20.7823L59.6096 11L62 12.6924L57.6175 20.3392L61.1713 22.8557L59.9442 25L54 20.7911V20.7823Z" fill="white"/>
<path d="M66.8636 30.4969C66.1569 29.8633 65.6461 29.1791 65.331 28.4526C65.0245 27.7261 64.9309 26.9997 65.0501 26.2732C65.1693 25.5467 65.5098 24.8709 66.0803 24.2543L70.8652 19L73.1044 21.0105L68.4897 26.0789C68.2599 26.3323 68.1066 26.6111 68.0385 26.9152C67.9704 27.2109 67.9874 27.5065 68.0896 27.8022C68.1918 28.0978 68.362 28.3513 68.6175 28.5793C68.8729 28.8159 69.1538 28.9595 69.4603 29.027C69.7669 29.0946 70.0563 29.0777 70.3543 28.9848C70.6438 28.8919 70.9077 28.7145 71.1461 28.4611L75.7608 23.3926L78 25.4031L73.2151 30.6574C72.6446 31.2825 72.0061 31.688 71.2909 31.8738C70.5757 32.0597 69.835 32.0428 69.0772 31.8062C68.3109 31.5697 67.5788 31.1389 66.8721 30.4969H66.8636Z" fill="white"/>
<path d="M79.998 30.5119L81.9746 29L88 36.7927L86.0235 38.2959L83.9511 35.6177L76.8808 41L75 38.5637L82.0703 33.1814L79.998 30.5032V30.5119Z" fill="white"/>
<path d="M92 44.5885L82.465 50L81 47.4115L90.535 42L92 44.5885Z" fill="white"/>
<path d="M86.3957 58.5304C86.0461 57.5961 85.9322 56.6702 86.0379 55.7611C86.1437 54.8521 86.5015 54.0188 87.0951 53.2781C87.6887 52.5374 88.5344 51.9397 89.6321 51.5021C90.738 51.0644 91.7545 50.9129 92.6815 51.0475C93.6085 51.1906 94.4054 51.5526 95.0722 52.1586C95.739 52.7562 96.2513 53.5306 96.6009 54.4649C96.9506 55.3992 97.0725 56.3251 96.9587 57.2341C96.8529 58.1432 96.4952 58.9765 95.9016 59.7172C95.308 60.4663 94.4542 61.0555 93.3483 61.5016C92.2424 61.9393 91.234 62.0908 90.307 61.9478C89.38 61.8047 88.5913 61.4343 87.9163 60.8367C87.2496 60.2391 86.7373 59.4731 86.3876 58.5388L86.3957 58.5304ZM88.7458 57.5961C88.9165 58.059 89.1686 58.4041 89.502 58.6398C89.8273 58.8671 90.2257 58.9849 90.6974 58.9849C91.169 58.9849 91.6975 58.8671 92.2911 58.6314C92.8847 58.3957 93.3645 58.1095 93.7142 57.7897C94.0638 57.4614 94.2915 57.0995 94.381 56.7039C94.4785 56.3083 94.4379 55.8706 94.259 55.4076C94.0883 54.9447 93.8361 54.5996 93.5109 54.3723C93.1856 54.145 92.779 54.0272 92.3074 54.0272C91.8358 54.0272 91.2991 54.145 90.7055 54.3807C90.1119 54.6164 89.6484 54.8942 89.2987 55.2224C88.9491 55.5507 88.7295 55.9127 88.6401 56.3083C88.5425 56.7039 88.5832 57.1416 88.7539 57.5961H88.7458Z" fill="white"/>
<path d="M89.0086 66.8974L100.189 65L100.761 68.2129L96.8346 71.5523C96.4966 71.8391 96.15 72.1174 95.8033 72.3703C95.4566 72.6318 95.0753 72.8932 94.6506 73.1462C94.226 73.4076 93.7233 73.6859 93.1513 73.9726L93.108 73.7196C93.5067 73.6268 93.9746 73.5172 94.4946 73.3907C95.0146 73.2642 95.5433 73.1462 96.0546 73.0281C96.566 72.91 96.9993 72.8257 97.3546 72.7583L101.454 72.0668L102 75.1026L90.82 77L90.248 73.7871L93.8966 70.6753C94.3126 70.3212 94.7027 70.0091 95.0667 69.7309C95.4307 69.4526 95.8206 69.1827 96.2366 68.9129C96.6526 68.643 97.1293 68.331 97.6753 67.9852L97.7273 68.2888C97.2073 68.4153 96.696 68.5418 96.176 68.6683C95.6646 68.7948 95.188 68.9044 94.746 69.0056C94.304 69.1068 93.9313 69.1743 93.628 69.2333L89.546 69.9248L89 66.889L89.0086 66.8974Z" fill="white"/>
<path d="M91.2481 81L102 85.0356L101.909 89.3467L91 93L91.0744 89.4267L95.3007 88.1733C96.2188 87.9067 97.1699 87.6578 98.1541 87.4178C99.1383 87.1778 100.123 86.9645 101.09 86.76L101.074 87.48C100.106 87.24 99.1383 86.9911 98.1624 86.7422C97.1865 86.4933 96.2436 86.2178 95.3421 85.9156L91.1654 84.5289L91.2398 81H91.2481ZM93.2662 83.8533L95.4579 83.9067L95.3256 90.3156L93.1338 90.2622L93.2662 83.8533Z" fill="white"/>
<path d="M88.6974 102.237L94.3364 100.554L93.6563 103.884L88 105.648L88.6974 102.246V102.237ZM89.9715 96L101 98.466L99.9841 103.434C99.8119 104.289 99.5106 105.009 99.0801 105.585C98.6497 106.161 98.1159 106.566 97.4874 106.8C96.8503 107.034 96.1444 107.061 95.3695 106.89C94.5775 106.71 93.949 106.386 93.4841 105.891C93.0192 105.405 92.7093 104.802 92.5715 104.082C92.4338 103.362 92.451 102.561 92.6317 101.679L93.243 98.709L95.5675 99.231L95.094 101.571C95.0166 101.94 94.9993 102.273 95.0338 102.552C95.0682 102.831 95.1715 103.065 95.3351 103.254C95.4987 103.434 95.7397 103.56 96.0583 103.632C96.3768 103.704 96.6437 103.695 96.8676 103.596C97.0914 103.497 97.2808 103.335 97.4271 103.092C97.5735 102.849 97.6854 102.543 97.7629 102.174L97.9867 101.076L89.3602 99.15L89.9973 96.027L89.9715 96Z" fill="white"/>
<path d="M86.1301 112L89.7072 113.507L98 112.401L96.649 115.762L92.9275 115.98C92.5876 115.998 92.2562 115.998 91.9164 115.98C91.5765 115.963 91.1941 115.937 90.7693 115.884L90.9392 115.466C91.2791 115.728 91.5765 115.972 91.8314 116.198C92.0863 116.424 92.3327 116.66 92.5621 116.912L95.1026 119.647L93.7601 123L88.5771 116.355L85 114.848L86.1386 112H86.1301Z" fill="white"/>
</svg>
