<svg width="64" height="19" viewBox="0 0 64 19" fill="none" xmlns="http://www.w3.org/2000/svg">
<path d="M0 10.2775L4.23959 0L8.45477 1.92543C9.179 2.25917 9.75676 2.68704 10.188 3.20905C10.6193 3.73961 10.8797 4.33009 10.9692 4.98902C11.0587 5.64794 10.953 6.34109 10.6519 7.06847C10.3508 7.80442 9.93577 8.35209 9.41498 8.72006C8.89418 9.08803 8.30015 9.26775 7.63288 9.26775C6.96561 9.26775 6.26581 9.10513 5.51717 8.76284L2.99457 7.61616L3.88969 5.4511L5.87522 6.35819C6.19258 6.50367 6.47738 6.58067 6.72964 6.60634C6.99004 6.62345 7.20974 6.57216 7.40503 6.4438C7.60033 6.31543 7.75496 6.11001 7.87702 5.8105C7.99908 5.51955 8.03976 5.24571 7.99907 5.01466C7.95839 4.77505 7.84445 4.56112 7.65729 4.37285C7.47013 4.18459 7.21788 4.01348 6.90052 3.87656L5.97286 3.44868L2.65278 11.4927L0 10.2861V10.2775ZM5.28932 12.6907L4.8499 6.88018L7.67358 8.1638L8.1781 14L5.28932 12.6822V12.6907Z" fill="white"/>
<path d="M17.8401 16.8224C16.9125 16.6139 16.145 16.2638 15.521 15.7885C14.8969 15.305 14.4668 14.7297 14.2138 14.046C13.9608 13.3624 13.9355 12.6203 14.1211 11.8116L15.7149 5L18.6329 5.66698L17.098 12.2368C17.0221 12.5703 17.0221 12.8788 17.1149 13.1706C17.2076 13.4624 17.3594 13.7042 17.5871 13.9126C17.8148 14.1211 18.0847 14.2545 18.422 14.3295C18.7594 14.4045 19.0714 14.4045 19.3666 14.3128C19.6617 14.2294 19.9147 14.071 20.1171 13.8543C20.3279 13.6375 20.4713 13.354 20.5472 13.0205L22.0821 6.45069L25 7.11767L23.4061 13.9293C23.2206 14.738 22.8579 15.3967 22.3266 15.8969C21.7953 16.3972 21.146 16.7306 20.3701 16.8974C19.5943 17.0558 18.7509 17.0308 17.8233 16.8224H17.8401Z" fill="white"/>
<path d="M28 18.6263L28.6058 8L31.7684 8.14623L31.2962 16.4491L36 16.6765L35.8663 19L28 18.6263Z" fill="white"/>
<path d="M41.2239 18.9915L40 7.90341L47.8094 7L48.0759 9.42896L43.2054 9.99144L43.4135 11.8665L47.876 11.3466L48.1342 13.7159L43.6716 14.2358L43.8881 16.2301L48.7336 15.6676L49 18.0966L41.2239 19V18.9915Z" fill="white"/>
<path d="M55.133 17L52 6.56233L56.5686 5.23266C57.354 4.99998 58.0887 4.94184 58.7642 5.05818C59.4398 5.16621 60.0225 5.44044 60.5123 5.87257C61.0021 6.3047 61.3568 6.89472 61.5764 7.63434C61.8044 8.38226 61.8213 9.06371 61.6355 9.67036C61.4497 10.277 61.095 10.8089 60.5714 11.241C60.0394 11.6814 59.3723 12.0138 58.57 12.2465L55.8339 13.0443L55.1752 10.8421L57.3286 10.2188C57.6664 10.1191 57.9535 9.99447 58.1647 9.83657C58.3758 9.67868 58.5278 9.49587 58.6038 9.2798C58.6798 9.06373 58.6713 8.7978 58.5785 8.49863C58.4856 8.19947 58.3505 7.97509 58.1647 7.82551C57.9789 7.67592 57.7509 7.59278 57.4891 7.57616C57.2189 7.55954 56.9148 7.60111 56.577 7.70083L55.5637 7.99167L58.0127 16.1607L55.133 16.9917V17ZM60.8754 15.3296L56.8473 11.2909L59.9043 10.4017L64 14.4155L60.867 15.3296H60.8754Z" fill="white"/>
</svg>
