<svg width="79" height="79" viewBox="0 0 79 79" fill="none" xmlns="http://www.w3.org/2000/svg">
<path d="M0.241561 70.4385L0 67.9512L9.76708 67L10 69.4873L6.64364 69.8189L7.48923 78.7032L4.44347 79L3.59793 70.1156L0.241561 70.4473V70.4385Z" fill="white"/>
<path d="M16.0636 77L13 66.5106L17.5997 65.2191C18.3889 64.9942 19.1273 64.9443 19.8062 65.0609C20.4852 65.1775 21.0707 65.4525 21.5545 65.8941C22.0382 66.3356 22.3946 66.9271 22.6068 67.6686C22.8274 68.4185 22.8444 69.1017 22.6492 69.7099C22.454 70.3181 22.0976 70.843 21.563 71.2762C21.0283 71.7095 20.3579 72.0427 19.5432 72.2677L16.785 73.0425L16.14 70.8347L18.3041 70.2264C18.652 70.1265 18.9321 70.0015 19.1528 69.8515C19.3734 69.7016 19.5177 69.5099 19.5941 69.2933C19.6704 69.0767 19.6619 68.8101 19.5771 68.5101C19.4922 68.2102 19.3564 67.9852 19.1697 67.8353C18.983 67.6853 18.7624 67.602 18.4908 67.577C18.2193 67.5603 17.9137 67.5937 17.5743 67.6937L16.5559 67.9769L18.9491 76.1835L16.0552 77H16.0636ZM21.843 75.3753L17.8289 71.2929L20.9095 70.4264L25 74.4839L21.843 75.3753Z" fill="white"/>
<path d="M27.6464 61L32 71.7025L29.3536 73L25 62.2975L27.6464 61Z" fill="white"/>
<path d="M41.5431 66.1205C40.6971 66.6393 39.826 66.9311 38.9214 66.9878C38.0167 67.0527 37.1456 66.8581 36.308 66.4123C35.4704 65.9664 34.7249 65.2531 34.0716 64.2641C33.4182 63.2671 33.0664 62.3024 33.0078 61.3702C32.9575 60.438 33.1502 59.5949 33.6025 58.8248C34.0464 58.0629 34.683 57.4225 35.5122 56.9118C36.0902 56.5551 36.6682 56.3038 37.2545 56.1579C37.8408 56.012 38.4104 55.9633 38.9716 56.0282C39.5328 56.093 40.0605 56.2633 40.5631 56.547C41.0657 56.8307 41.5264 57.2198 41.9368 57.7305L39.3904 59.295C39.2397 59.1167 39.0721 58.9788 38.8879 58.8654C38.7036 58.76 38.5109 58.687 38.3015 58.6627C38.0921 58.6384 37.8827 58.6465 37.6565 58.6952C37.4304 58.7519 37.2043 58.8492 36.9697 58.987C36.5509 59.2464 36.2577 59.5625 36.0986 59.9435C35.9394 60.3245 35.9059 60.7379 35.9981 61.2081C36.0902 61.6701 36.308 62.1646 36.6514 62.6834C37.0116 63.2265 37.3885 63.64 37.7822 63.9156C38.1759 64.1912 38.578 64.329 38.9884 64.3371C39.3988 64.3371 39.8093 64.2236 40.2197 63.9723C40.4542 63.8264 40.6385 63.6724 40.7809 63.5022C40.9233 63.3319 41.0238 63.1455 41.0908 62.9509C41.1578 62.7564 41.1746 62.5537 41.1578 62.343C41.1411 62.1322 41.0824 61.9214 40.9819 61.7188L43.5283 60.1543C43.746 60.5515 43.8968 61.0054 43.9638 61.5242C44.0308 62.043 44.0057 62.5699 43.8801 63.1211C43.7545 63.6724 43.4948 64.2074 43.1262 64.7343C42.7493 65.2531 42.2216 65.7233 41.5431 66.1448V66.1205Z" fill="white"/>
<path d="M50.5416 60L43 52.0678L45.131 50.0028L46.7541 51.7068L48.8851 54.0319L49.9257 55.0392L52.6809 57.9351L50.55 60H50.5416ZM50.8413 57.0454L49.1099 55.2238C48.9351 54.7538 48.7936 54.3173 48.677 53.9144C48.5605 53.5115 48.4606 53.0834 48.3857 52.6301C48.3108 52.1769 48.2358 51.6312 48.1609 50.9933L47.7864 47.4427L50.3169 45L50.9079 52.2692L50.6249 52.3783L50.8413 57.0538V57.0454ZM55.4862 55.2155L50.5582 53.8556L50.4084 50.9765L58 52.7896L55.4862 55.2238V55.2155Z" fill="white"/>
<path d="M63.8484 45.4084C63.3168 46.2593 62.7449 46.909 62.1247 47.3573C61.5125 47.8056 60.8601 48.0252 60.1835 47.9977C59.5069 47.9703 58.7981 47.6775 58.0812 47.1011L59.6599 44.585C59.9338 44.7771 60.1996 44.8778 60.4654 44.8961C60.7312 44.9144 60.9809 44.832 61.2306 44.6673C61.4722 44.5026 61.7059 44.2464 61.9153 43.9079C62.0925 43.6243 62.2133 43.3589 62.2696 43.121C62.326 42.874 62.3341 42.6636 62.2858 42.4806C62.2374 42.2976 62.1408 42.142 62.0039 42.0231C61.875 41.9133 61.73 41.8767 61.5689 41.8858C61.4158 41.9041 61.2225 41.9773 61.0131 42.1329C60.8037 42.2884 60.5459 42.508 60.256 42.8191L59.4586 43.6517C58.7578 44.3836 58.0571 44.8411 57.3563 45.015C56.6555 45.1888 55.9709 45.015 55.2943 44.466C54.7466 44.0268 54.3761 43.4687 54.1747 42.8008C53.9733 42.1329 53.9492 41.4101 54.0861 40.6323C54.2311 39.8546 54.5371 39.0769 55.0285 38.3084C55.5279 37.5215 56.0676 36.9268 56.6636 36.5425C57.2597 36.1583 57.8638 35.9752 58.4759 36.0027C59.0961 36.0301 59.6841 36.2681 60.248 36.7164L58.6531 39.2599C58.3551 39.0586 58.0651 38.9946 57.7832 39.0769C57.4933 39.1593 57.2194 39.4246 56.9455 39.8455C56.7764 40.12 56.6636 40.3579 56.6072 40.5775C56.5508 40.797 56.5508 40.9892 56.5992 41.1539C56.6475 41.3186 56.7361 41.4467 56.865 41.5565C57.0019 41.6663 57.1469 41.712 57.2999 41.712C57.461 41.712 57.6382 41.6388 57.8315 41.5016C58.0249 41.3643 58.2504 41.1722 58.5001 40.916L59.1525 40.2389C59.5874 39.7814 60.0143 39.4246 60.4171 39.1776C60.8198 38.9306 61.2145 38.7658 61.5931 38.6927C61.9716 38.6286 62.3341 38.6469 62.6804 38.7475C63.0268 38.8482 63.3651 39.0403 63.6953 39.3057C64.2592 39.7631 64.6377 40.3121 64.8391 40.9435C65.0405 41.5748 65.0485 42.2701 64.8874 43.0295C64.7183 43.7798 64.38 44.5758 63.8645 45.3993L63.8484 45.4084Z" fill="white"/>
<path d="M61.2402 33.2768L59 32.1875L63.1863 23L65.4265 24.0893L63.9907 27.25L72 31.134L70.6939 34L62.6846 30.1161L61.2488 33.2768H61.2402Z" fill="white"/>
<path d="M74.8821 22.9912L64 19.9912L66.1179 12L68.5026 12.6579L67.1768 17.6403L69.0192 18.1491L70.2331 13.5789L72.5576 14.2193L71.3437 18.7894L73.298 19.3333L74.6152 14.3772L77 15.0351L74.8821 23V22.9912Z" fill="white"/>
<path d="M78.1532 10L67 8.94481L67.4362 3.96149C67.5132 3.10138 67.727 2.36542 68.0862 1.75358C68.4454 1.14175 68.9245 0.680664 69.5232 0.370315C70.1219 0.0599655 70.8147 -0.0553202 71.6016 0.024484C72.397 0.095421 73.0556 0.343724 73.5774 0.769346C74.0905 1.1861 74.4669 1.74473 74.6807 2.42749C74.9031 3.11913 74.9715 3.89946 74.8945 4.7773L74.6294 7.75665L72.2773 7.53497L72.4825 5.19403C72.5167 4.82161 72.4996 4.50237 72.4312 4.22749C72.3628 3.95261 72.243 3.73982 72.0549 3.58021C71.8753 3.4206 71.6187 3.33192 71.3022 3.29646C70.9857 3.26985 70.7206 3.31421 70.5068 3.42948C70.2929 3.55362 70.1304 3.73985 70.0107 3.99699C69.8909 4.25414 69.814 4.56449 69.7883 4.93691L69.6942 6.03642L78.427 6.86106L78.1532 10ZM78.7007 3.73981L73.3293 6.08075L73.6201 2.7467L79 0.32599L78.7007 3.73981Z" fill="white"/>
</svg>
