<svg width="53" height="18" viewBox="0 0 53 18" fill="none" xmlns="http://www.w3.org/2000/svg">
<path d="M6.62317 17.2127L0.111938 7.64234L3.31629 6.51441L5.59779 10.3169C5.88832 10.7954 6.17883 11.3252 6.48644 11.9063C6.78552 12.4873 7.08461 13.0684 7.38368 13.6494C7.68275 14.2305 7.96472 14.7688 8.22962 15.2559L7.66565 15.4524C7.5802 14.897 7.47766 14.2988 7.34949 13.658C7.22132 13.0171 7.10169 12.3762 6.98206 11.7268C6.86244 11.0774 6.77698 10.4793 6.70862 9.92383L6.20447 5.49756L9.06703 4.48926L11.4425 8.25757C11.7416 8.72754 12.0492 9.25733 12.3568 9.82984C12.673 10.4109 12.9806 10.9834 13.2797 11.5645C13.5873 12.1455 13.8778 12.6753 14.1598 13.1624L13.5873 13.3674C13.4933 12.8206 13.3822 12.2224 13.2455 11.5815C13.1088 10.9407 12.9806 10.2998 12.8524 9.65894C12.7242 9.01807 12.6217 8.41992 12.5448 7.8645L11.9552 3.47241L15.1596 2.34448L16.0739 13.8887L12.8353 15.0252L10.2719 11.0945C9.82753 10.4194 9.40881 9.66748 8.99865 8.84717C8.5885 8.02686 8.1698 7.24072 7.74255 6.50586L8.49451 6.24097C8.59705 7.09546 8.75087 7.96704 8.96449 8.85571C9.17812 9.74439 9.32336 10.5903 9.40027 11.4106L9.85315 16.0847L6.61464 17.2212L6.62317 17.2127Z" fill="white"/>
<path d="M23.7557 1.01147L25.5673 12.0515L22.5765 12.5386L20.765 1.49854L23.7557 1.01147Z" fill="white"/>
<path d="M34.2317 11.4874C33.2576 11.5131 32.4116 11.3934 31.6768 11.12C30.9504 10.8551 30.3694 10.4193 29.9592 9.82971C29.5405 9.24011 29.3184 8.47961 29.2927 7.53967L32.1724 7.46276C32.198 7.80456 32.292 8.08654 32.4544 8.31726C32.6167 8.54797 32.8303 8.71887 33.1123 8.82995C33.3943 8.94103 33.7275 8.9923 34.1206 8.98376C34.4453 8.98376 34.7188 8.93249 34.9324 8.8385C35.1545 8.75305 35.3169 8.63342 35.4194 8.48815C35.5305 8.34289 35.5818 8.18054 35.5732 7.99255C35.5732 7.82165 35.5134 7.67638 35.4023 7.54821C35.2913 7.42004 35.1118 7.30895 34.864 7.21496C34.6162 7.11242 34.283 7.02697 33.8643 6.95861L32.7278 6.74499C31.7366 6.557 30.9504 6.22375 30.3694 5.72814C29.7883 5.23254 29.4893 4.54894 29.4636 3.67736C29.4465 2.96813 29.626 2.33581 29.9934 1.79748C30.3694 1.2506 30.8821 0.823357 31.5571 0.507195C32.2322 0.191032 33.0098 0.020134 33.8899 0.00304416C34.7957 -0.0225906 35.5818 0.114128 36.2483 0.396111C36.9148 0.678093 37.4361 1.09679 37.8035 1.63512C38.1795 2.17345 38.376 2.80578 38.4016 3.54064L35.4878 3.61755C35.4536 3.25012 35.3084 2.96813 35.0605 2.78014C34.8127 2.58361 34.4453 2.48962 33.9497 2.50671C33.6421 2.50671 33.3857 2.55798 33.1892 2.63488C32.9927 2.71178 32.8474 2.81432 32.7534 2.95104C32.6594 3.08776 32.6167 3.23303 32.6252 3.39538C32.6252 3.57482 32.6851 3.72009 32.7876 3.8568C32.8901 3.98498 33.061 4.09606 33.2832 4.19006C33.5054 4.28405 33.7959 4.36096 34.1462 4.42931L35.0691 4.60021C35.6843 4.7113 36.2227 4.87365 36.667 5.07873C37.1113 5.28381 37.4873 5.52307 37.7778 5.80505C38.0684 6.08703 38.282 6.40319 38.4273 6.76208C38.5725 7.12097 38.6494 7.51403 38.658 7.93273C38.6751 8.6676 38.5127 9.29992 38.1624 9.82116C37.812 10.3424 37.3079 10.744 36.6328 11.026C35.9578 11.308 35.1546 11.4618 34.2146 11.4874H34.2317Z" fill="white"/>
<path d="M42.5289 11.5132L44.1268 0.438965L52.1078 1.59253L51.7575 4.01929L46.7758 3.30151L46.5023 5.17285L51.0653 5.83081L50.7235 8.19776L46.1605 7.5398L45.87 9.53076L50.8175 10.2485L50.4672 12.6753L42.5118 11.5303L42.5289 11.5132Z" fill="white"/>
</svg>
