<svg width="32" height="33" viewBox="0 0 32 33" fill="none" xmlns="http://www.w3.org/2000/svg">
<path d="M17.7345 31.6066C17.4013 31.3501 17.2328 31.1442 17.2328 30.987C17.2328 30.7773 17.5192 30.4253 18.0884 29.9554C18.5106 29.5698 18.9915 29.2538 19.513 29.0194C20.0323 29.3853 20.5928 29.6888 21.183 29.9236C21.6463 30.0749 22.1315 30.1482 22.6189 30.1408C23.1412 30.1408 23.6504 29.9105 24.1409 29.4518C24.6314 28.9932 25.0133 28.1938 25.3484 27.0555C25.6835 25.9173 25.8183 24.3896 25.8183 22.4763V2.3942C25.8183 1.94864 24.4741 1.54239 22.0535 1.17546V0.333008H0V32.333H19.03C19.0132 32.333 18.9963 32.3012 18.9795 32.2956C18.5341 32.1258 18.115 31.8938 17.7345 31.6066Z" fill="#F02D01"/>
<path d="M29.042 2.39404V21.0627C29.042 23.0022 28.8548 24.5842 28.5197 25.8085C28.1846 27.0329 27.7353 27.9895 27.198 28.6785C26.5815 29.4442 25.882 30.1392 25.1125 30.7509C24.3953 31.3134 23.5918 31.756 22.733 32.0614C22.4747 32.155 22.2313 32.3253 21.9991 32.3253H32V1.17529C31.2635 1.28242 30.5445 1.48702 29.862 1.78373C29.3509 2.00838 29.042 2.21057 29.042 2.39404Z" fill="#F02D01"/>
</svg>
